{
	"asset":{
		"generator":"Khronos glTF Blender I/O v4.3.47",
		"version":"2.0"
	},
	"extensionsUsed":[
		"KHR_lights_punctual"
	],
	"extensionsRequired":[
		"KHR_lights_punctual"
	],
	"extensions":{
		"KHR_lights_punctual":{
			"lights":[
				{
					"color":[
						1,
						1,
						1
					],
					"intensity":10870281743.553843,
					"spot":{
						"innerConeAngle":0.3337942263919169,
						"outerConeAngle":0.39269909262657166
					},
					"type":"spot",
					"name":"Spot"
				}
			]
		}
	},
	"scene":0,
	"scenes":[
		{
			"name":"Scene",
			"nodes":[
				0,
				1,
				2,
				3,
				4
			]
		}
	],
	"nodes":[
		{
			"camera":0,
			"name":"Camera",
			"translation":[
				-277.99993896484375,
				273,
				800
			]
		},
		{
			"mesh":0,
			"name":"large_box",
			"rotation":[
				0.41943973302841187,
				0.5692716240882874,
				-0.5692717432975769,
				0.41943982243537903
			],
			"scale":[
				165.00001525878906,
				165.00001525878906,
				330
			],
			"translation":[
				-368.0000305175781,
				165.00003051757812,
				-351
			]
		},
		{
			"mesh":1,
			"name":"small_box",
			"rotation":[
				0.10217303037643433,
				0.6996862292289734,
				-0.6996861100196838,
				0.10217301547527313
			],
			"scale":[
				82.50000762939453,
				82.50000762939453,
				82.50000762939453
			],
			"translation":[
				-184.99998474121094,
				82.50001525878906,
				-168.99998474121094
			]
		},
		{
			"mesh":2,
			"name":"cornell_box",
			"rotation":[
				0,
				-0.7071068286895752,
				0.7071068286895752,
				5.338509012631221e-08
			]
		},
		{
			"extensions":{
				"KHR_lights_punctual":{
					"light":0
				}
			},
			"name":"Spot",
			"rotation":[
				-0.7071068286895752,
				0,
				0,
				0.7071068286895752
			],
			"translation":[
				-278,
				509.9999694824219,
				-279.5
			]
		}
	],
	"cameras":[
		{
			"name":"Camera",
			"perspective":{
				"aspectRatio":1,
				"yfov":0.683230996131897,
				"zfar":1500,
				"znear":0.10000000149011612
			},
			"type":"perspective"
		}
	],
	"materials":[
		{
			"doubleSided":true,
			"name":"box_Material",
			"pbrMetallicRoughness":{
				"baseColorFactor":[
					0.5,
					0.5,
					0.5,
					1
				],
				"metallicFactor":0,
				"roughnessFactor":0.5
			}
		},
		{
			"doubleSided":true,
			"name":"cbox_Material",
			"pbrMetallicRoughness":{
				"baseColorFactor":[
					0.4000000059604645,
					0.4000000059604645,
					0.4000000059604645,
					1
				],
				"metallicFactor":0,
				"roughnessFactor":0.5
			}
		},
		{
			"doubleSided":true,
			"name":"cbox_red",
			"pbrMetallicRoughness":{
				"baseColorFactor":[
					0.5,
					0,
					0,
					1
				],
				"metallicFactor":0,
				"roughnessFactor":0.5
			}
		},
		{
			"doubleSided":true,
			"name":"cbox_green",
			"pbrMetallicRoughness":{
				"baseColorFactor":[
					0,
					0.5,
					0,
					1
				],
				"metallicFactor":0,
				"roughnessFactor":0.5
			}
		}
	],
	"meshes":[
		{
			"name":"large_box",
			"primitives":[
				{
					"attributes":{
						"POSITION":0,
						"NORMAL":1
					},
					"indices":2,
					"material":0
				}
			]
		},
		{
			"name":"small_box",
			"primitives":[
				{
					"attributes":{
						"POSITION":3,
						"NORMAL":4
					},
					"indices":2,
					"material":0
				}
			]
		},
		{
			"name":"cornell_box",
			"primitives":[
				{
					"attributes":{
						"POSITION":5,
						"NORMAL":6
					},
					"indices":7,
					"material":1
				},
				{
					"attributes":{
						"POSITION":5,
						"NORMAL":6
					},
					"indices":8,
					"material":2
				},
				{
					"attributes":{
						"POSITION":5,
						"NORMAL":6
					},
					"indices":9,
					"material":3
				}
			]
		}
	],
	"accessors":[
		{
			"bufferView":0,
			"componentType":5126,
			"count":24,
			"max":[
				0.5,
				0.5,
				0.5
			],
			"min":[
				-0.5,
				-0.5,
				-0.5
			],
			"type":"VEC3"
		},
		{
			"bufferView":1,
			"componentType":5126,
			"count":24,
			"type":"VEC3"
		},
		{
			"bufferView":2,
			"componentType":5123,
			"count":36,
			"type":"SCALAR"
		},
		{
			"bufferView":3,
			"componentType":5126,
			"count":24,
			"max":[
				1,
				1,
				1
			],
			"min":[
				-1,
				-1,
				-1
			],
			"type":"VEC3"
		},
		{
			"bufferView":4,
			"componentType":5126,
			"count":24,
			"type":"VEC3"
		},
		{
			"bufferView":5,
			"componentType":5126,
			"count":20,
			"max":[
				556,
				559.2000122070312,
				0
			],
			"min":[
				0,
				0,
				-548.7999877929688
			],
			"type":"VEC3"
		},
		{
			"bufferView":6,
			"componentType":5126,
			"count":20,
			"type":"VEC3"
		},
		{
			"bufferView":7,
			"componentType":5123,
			"count":18,
			"type":"SCALAR"
		},
		{
			"bufferView":8,
			"componentType":5123,
			"count":6,
			"type":"SCALAR"
		},
		{
			"bufferView":9,
			"componentType":5123,
			"count":6,
			"type":"SCALAR"
		}
	],
	"bufferViews":[
		{
			"buffer":0,
			"byteLength":288,
			"byteOffset":0,
			"target":34962
		},
		{
			"buffer":0,
			"byteLength":288,
			"byteOffset":288,
			"target":34962
		},
		{
			"buffer":0,
			"byteLength":72,
			"byteOffset":576,
			"target":34963
		},
		{
			"buffer":0,
			"byteLength":288,
			"byteOffset":648,
			"target":34962
		},
		{
			"buffer":0,
			"byteLength":288,
			"byteOffset":936,
			"target":34962
		},
		{
			"buffer":0,
			"byteLength":240,
			"byteOffset":1224,
			"target":34962
		},
		{
			"buffer":0,
			"byteLength":240,
			"byteOffset":1464,
			"target":34962
		},
		{
			"buffer":0,
			"byteLength":36,
			"byteOffset":1704,
			"target":34963
		},
		{
			"buffer":0,
			"byteLength":12,
			"byteOffset":1740,
			"target":34963
		},
		{
			"buffer":0,
			"byteLength":12,
			"byteOffset":1752,
			"target":34963
		}
	],
	"buffers":[
		{
			"byteLength":1764,
			"uri":"cornellbox.bin"
		}
	]
}
